<?xml version="1.0" encoding="UTF-8"?>
<svg id="Layer_2" data-name="Layer 2" xmlns="http://www.w3.org/2000/svg" viewBox="0 0 64 64">
  <defs>
    <style>
      .cls-1 {
        fill: #226ce0;
        fill-rule: evenodd;
        stroke-width: 0px;
      }
    </style>
  </defs>
  <g id="Layer_1-2" data-name="Layer 1">
    <path class="cls-1" d="m64,0H0v64h64V0ZM24.12,43.72c.38-1.08.64-2.36.76-3.86.56,2,1.44,3.68,2.66,5,2.22,2.4,5.38,3.62,9.46,3.62,2,0,3.8-.2,5.42-.6,1.62-.4,2.92-.84,3.94-1.3,1.02-.46,1.52-.72,1.52-.78v-8.14l2.72-.94v-3.48l-11.52.22v3.26l3,.94v5.04c-.14.02-.42.1-.86.22-.44.12-.98.22-1.64.34-.66.1-1.28.16-1.9.16-4.54,0-6.8-3.1-6.8-9.28,0-3.28.56-5.72,1.7-7.34,1.14-1.62,2.8-2.44,4.98-2.44.76,0,1.5.04,2.16.14.68.1,1.22.18,1.6.3.4.1.64.16.74.2l1,3.44h3.74l.2-7.18s-.5-.2-1.52-.52c-1.02-.34-2.2-.64-3.58-.92-1.36-.28-2.78-.42-4.22-.42-2.72,0-5.1.6-7.12,1.8-2.02,1.2-3.58,2.92-4.68,5.18-.36.74-.66,1.52-.92,2.36v-10.06l3-1.22v-3.6l-12.2.2v3.4l3,1.22v21.56c0,2.56-1.2,3.82-3.54,3.82h-1.92l-.5,4.12c.18.02.6.08,1.24.16.66.1,1.24.14,1.78.14,2.3,0,4.1-.4,5.42-1.2,1.34-.78,2.3-1.94,2.86-3.5l.02-.06Z"/>
  </g>
</svg>