<svg width="64" height="64" viewBox="0 0 64 64" fill="none" xmlns="http://www.w3.org/2000/svg">
    <path fill-rule="evenodd" clip-rule="evenodd" d="M64 0H0V64H64V0ZM24.12 43.72C24.5 42.64 24.76 41.36 24.88 39.86C25.44 41.86 26.32 43.54 27.54 44.86C29.76 47.26 32.92 48.48 37 48.48C39 48.48 40.8 48.28 42.42 47.88C44.04 47.48 45.34 47.04 46.36 46.58C47.38 46.12 47.88 45.86 47.88 45.8V37.66L50.6 36.72V33.24L39.08 33.46V36.72L42.08 37.66V42.7C41.94 42.72 41.66 42.8 41.22 42.92C40.78 43.04 40.24 43.14 39.58 43.26C38.92 43.36 38.3 43.42 37.68 43.42C33.14 43.42 30.88 40.32 30.88 34.14C30.88 30.86 31.44 28.42 32.58 26.8C33.72 25.18 35.38 24.36 37.56 24.36C38.32 24.36 39.06 24.4 39.72 24.5C40.4 24.6 40.94 24.68 41.32 24.8C41.72 24.9 41.96 24.96 42.06 25L43.06 28.44H46.8L47 21.26C47 21.26 46.5 21.06 45.48 20.74C44.46 20.4 43.28 20.1 41.9 19.82C40.54 19.54 39.12 19.4 37.68 19.4C34.96 19.4 32.58 20 30.56 21.2C28.54 22.4 26.98 24.12 25.88 26.38C25.52 27.12 25.22 27.9 24.96 28.74V18.68L27.96 17.46V13.86L15.76 14.06V17.46L18.76 18.68V40.24C18.76 42.8 17.56 44.06 15.22 44.06H13.3L12.8 48.18C12.98 48.2 13.4 48.26 14.04 48.34C14.7 48.44 15.28 48.48 15.82 48.48C18.12 48.48 19.92 48.08 21.24 47.28C22.58 46.5 23.54 45.34 24.1 43.78L24.12 43.72Z" fill="white"/>
</svg>