<svg width="32" height="32" viewBox="0 0 32 32" fill="none" xmlns="http://www.w3.org/2000/svg">
    <g clip-path="url(#clip0_395_241)">
        <path d="M16 32C24.8366 32 32 24.8366 32 16C32 7.16344 24.8366 0 16 0C7.16344 0 0 7.16344 0 16C0 24.8366 7.16344 32 16 32Z" fill="#6400E6"/>
        <path d="M5.11802 5.65152C5.13903 4.30642 6.69985 3.39658 7.63106 3.04584C7.7491 3.00139 7.86344 2.92405 7.97591 2.86709C8.6343 2.5338 11.1448 1.81707 12.5134 1.4487C12.5515 1.43847 12.5896 1.43359 12.629 1.43359H15.3337C15.3656 1.43359 15.3967 1.43679 15.4278 1.44371C16.3965 1.65882 18.202 2.24959 18.0249 2.98017C17.8505 3.69935 18.4187 4.54698 18.7526 4.91452C18.7733 4.93734 18.7971 4.95676 18.8204 4.977C19.0361 5.16475 19.335 5.75461 19.0372 6.86066C18.7363 7.9783 17.6243 9.47583 17.0352 10.1712C16.9836 10.2321 16.9485 10.3045 16.9337 10.3829L16.6858 11.6968C16.6787 11.7344 16.6674 11.7708 16.6495 11.8046C16.4612 12.1614 15.909 12.8529 14.988 13.1313C14.0207 13.4238 14.1163 14.5654 14.285 15.0997C14.4359 15.8973 13.6692 16.5865 13.2173 16.8653C13.1796 16.8886 13.1386 16.9039 13.0959 16.9155C12.5819 17.0553 11.5536 17.565 11.0794 18.6427C10.5907 19.7532 11.9806 21.1013 12.7647 21.6586C12.785 21.6729 12.8073 21.6857 12.8297 21.6963C16.0968 23.2376 15.4446 20.8874 14.7068 19.5144C14.4537 19.0177 14.2344 18.2884 15.3816 19.3457C16.4135 20.2966 17.4012 20.4545 17.8829 20.4084C17.9762 20.3995 18.0713 20.4072 18.1605 20.4362C19.0745 20.7336 19.8184 20.1715 20.135 19.783C20.1728 19.7366 20.1975 19.6815 20.2085 19.6227C20.281 19.2362 20.3042 18.5854 19.9089 18.5021C19.4946 18.4149 18.8179 17.4577 18.5036 16.9466C18.4843 16.9152 18.4688 16.8818 18.4606 16.846C18.3962 16.5671 18.3847 15.934 18.7841 15.2403C19.2115 14.4979 20.7431 14.4061 21.4555 14.4529C21.6991 14.481 22.1247 14.5542 21.8772 14.6216C21.6298 14.6891 21.493 15.1934 21.4555 15.4371C21.329 16.9339 20.6493 16.6378 20.2635 16.2475C20.2135 16.197 20.1564 16.1474 20.0855 16.1417C19.7909 16.1177 19.641 16.6103 20.8931 18.8114C22.2878 21.2635 20.4056 22.4576 19.2902 22.7482C18.9153 22.8607 17.6931 23.125 15.8034 23.2825C13.9355 23.4381 12.0969 21.903 11.385 21.0891C11.3683 21.07 11.3508 21.0531 11.3316 21.0364C11.049 20.7909 10.494 20.1496 10.3201 19.3457C10.1426 18.5246 8.29035 17.7091 7.34952 17.3902C7.32365 17.3814 7.29818 17.3756 7.27124 17.3714C6.59452 17.2653 5.33306 16.8049 5.39921 15.7464C5.46427 14.7055 4.76806 13.912 4.37357 13.6127C4.3453 13.5912 4.31869 13.5682 4.2971 13.54C4.15506 13.3547 3.90008 12.895 3.7964 12.2315C3.68712 11.5321 4.40069 9.92664 4.8024 9.14824C4.82511 9.10426 4.84068 9.05769 4.84793 9.00871C4.93559 8.41662 5.09647 7.03061 5.11802 5.65152Z" fill="#7D1AFF" fill-opacity="0.8"/>
        <path d="M17.8003 17.8006C17.8733 18.2681 18.2903 18.6897 18.6969 18.9869C18.9604 19.1796 18.9699 19.5569 18.6435 19.5599C17.9805 19.5659 17.162 19.1421 16.715 18.8399C16.6884 18.8219 16.6609 18.8069 16.6313 18.7944C15.9662 18.5155 14.805 17.9546 15.157 17.8006C15.4463 17.674 15.4643 17.0061 15.4214 16.5006C15.4045 16.3032 15.5349 16.1328 15.6402 15.9651C15.804 15.7042 15.4847 15.4031 15.1752 15.2077C15.0601 15.135 14.9692 15.0239 14.9584 14.8882C14.9199 14.4064 15.0488 13.6988 15.8038 13.5827C16.6503 13.4524 17.0762 12.6833 17.1977 12.2759C17.2062 12.2474 17.2105 12.2187 17.2124 12.189C17.2878 11.0419 17.773 8.85408 19.15 8.94294C20.3303 9.01908 21.2313 8.21458 21.6793 7.61322C21.8053 7.44405 22.0209 7.35891 22.2289 7.39338C22.6713 7.46666 23.2141 7.44748 23.2836 7.03081C23.3636 6.55019 24.1182 6.65789 24.6069 6.8063C24.7154 6.83926 24.8314 6.8365 24.939 6.80118C25.3182 6.67673 25.9267 6.57207 26.2361 6.86209C26.5302 7.13783 27.3327 7.05679 27.8975 6.94122C28.0967 6.9005 28.3071 6.98284 28.3855 7.17045C28.5044 7.45536 28.588 7.80021 28.4294 7.95875C28.2045 8.18371 28.5232 8.63362 28.7106 8.83046C31.6576 11.3725 31.5132 16.3384 31.0727 18.5036C29.9292 21.8873 26.3092 29.1665 20.9778 31.2136C10.1512 34.0627 3.89001 27.5318 1.72519 23.2536C1.55812 22.9234 1.85901 22.575 2.20992 22.6924C2.93087 22.9337 3.63636 23.2563 3.43119 23.5088C3.13875 23.8688 4.04045 24.2587 4.52785 24.4087C4.88404 24.5399 5.63576 24.9373 5.79323 25.4772C5.94131 25.985 6.66477 26.1346 7.07008 26.1506C7.11839 26.1525 7.16608 26.1435 7.21327 26.133C7.48659 26.072 8.1001 26.0645 8.85826 26.4333C9.67001 26.8282 11.0826 26.5063 11.7345 26.2815C11.7668 26.2703 11.7994 26.2625 11.8334 26.2589C12.5728 26.1795 14.0216 26.1711 14.2853 26.7426C14.5553 27.3275 16.4786 26.9863 17.4066 26.7426C18.2877 26.6301 20.511 26.2196 22.3556 25.4772C24.0325 24.8023 24.7675 24.0144 24.9788 23.6161C25.0151 23.5479 25.0189 23.4691 25.0108 23.3923C24.9747 23.0468 25.0119 22.4881 25.3925 22.3278C25.8199 22.1479 26.4329 21.278 26.686 20.8656C26.9859 20.2564 27.5352 18.9928 27.3328 18.8129C27.1303 18.6329 27.1547 17.7819 27.1922 17.3788C27.2578 16.8351 27.3103 15.5229 26.9953 14.6231C26.6804 13.7233 25.6456 13.7982 25.1676 13.9482C24.5021 14.2388 23.0699 14.6062 22.6649 13.7514C22.2724 12.9227 20.0515 13.4892 18.8912 13.9089C18.8209 13.9343 18.7591 13.9779 18.7086 14.0328C18.4274 14.3385 17.9105 14.8199 17.6034 14.8199C17.2837 14.8199 17.208 15.1901 17.2089 15.4044C17.209 15.4272 17.212 15.4498 17.2165 15.4721L17.3937 16.3584C17.4023 16.4011 17.4172 16.442 17.4354 16.4814C17.5299 16.6852 17.6991 17.1536 17.8003 17.8006Z" fill="#7D1AFF" fill-opacity="0.8"/>
        <path d="M9.95503 2.95201C9.5631 3.1013 8.92479 3.22222 8.51526 3.28584C8.37708 3.30732 8.2718 3.22311 8.39912 3.16518C8.58201 3.08197 8.93081 3.0107 9.1953 2.96886C9.26942 2.95713 9.33944 2.92801 9.40209 2.88667C9.64577 2.72591 10.0565 2.51625 10.2925 2.61458C10.6299 2.75517 11.5016 2.30526 11.4172 2.47398C11.3615 2.58545 11.1101 2.6918 10.9293 2.75187C10.8623 2.7741 10.7904 2.77531 10.7199 2.7764C10.5726 2.77865 10.3113 2.81628 9.95503 2.95201Z" fill="#9747FF"/>
        <path d="M13.0764 1.43452C13.0855 1.48927 12.953 1.60449 12.7641 1.73775C12.4367 1.96885 12.1755 1.69146 12.5334 1.51089C12.8104 1.37115 13.0623 1.35035 13.0764 1.43452Z" fill="#9747FF"/>
        <path d="M13.5543 4.6123C13.4704 4.64686 13.4003 4.65677 13.3419 4.6491C13.0594 4.61193 13.3548 4.24415 13.598 4.39251C13.7093 4.46038 13.7352 4.5378 13.5543 4.6123Z" fill="#9747FF"/>
        <path d="M16.5674 5.66915C16.4664 5.60548 16.3179 5.56868 16.142 5.65127C16.0239 5.70672 15.9741 5.84029 15.961 5.97009C15.9427 6.15123 15.9023 6.32152 15.8534 6.47163C15.7616 6.75316 15.91 7.13243 16.1787 7.00798C16.5438 6.83881 16.6622 6.30656 16.6746 5.90918C16.6775 5.81532 16.6469 5.71926 16.5674 5.66915Z" fill="#9747FF"/>
        <path d="M19.0364 7.39613C19.056 7.427 19.0758 7.43803 19.0956 7.43274C19.403 7.35018 18.8654 7.12759 19.0364 7.39613Z" fill="#9747FF"/>
        <path d="M21.933 7.00104C21.7822 7.00104 21.9367 6.84312 22.079 6.72575C22.1301 6.68363 22.1917 6.65596 22.257 6.64522C22.6013 6.5887 22.8594 6.62536 23.0343 6.68695C23.2011 6.74566 23.2748 6.9903 23.1133 7.06228C23.074 7.07972 23.0347 7.0674 23.0016 7.00104C22.8891 6.77608 22.158 7.00104 21.933 7.00104Z" fill="#9747FF"/>
        <path d="M21.5966 17.9693C21.4971 17.4552 21.7785 16.6144 22.0535 15.9824C22.1772 15.6981 22.5492 15.6484 22.7811 15.8543C23.116 16.1514 23.5131 16.4373 23.7618 16.4227C23.9835 16.4096 24.1214 16.333 24.2018 16.2508C24.2881 16.1626 24.3531 16.0436 24.4672 15.9968C24.8034 15.8591 25.384 15.7953 25.927 16.2821C26.7425 17.0132 25.1397 18.8691 24.2961 19.3752C23.4525 19.8814 22.5527 19.319 22.3277 19.2346C22.0716 19.1386 21.8324 18.6248 21.7191 18.3758C21.6718 18.2721 21.6295 18.1389 21.5966 17.9693Z" fill="#9747FF"/>
        <path d="M3.00947 9.81376C2.8501 9.09665 3.34049 8.12079 3.69566 7.58129C3.7741 7.46218 3.9127 7.39076 4.04531 7.44328C4.21598 7.51088 4.42237 7.66082 4.55604 7.95787C4.73619 8.35824 4.12817 9.73823 3.69483 10.5922C3.60646 10.7663 3.41677 10.8249 3.31405 10.6589C3.21359 10.4964 3.10209 10.2306 3.00947 9.81376Z" fill="#9747FF"/>
        <path d="M8.87503 19.1143L8.81255 19.0768C8.63523 18.9704 8.60509 18.7257 8.75137 18.5795C8.8481 18.4827 8.99589 18.4587 9.11832 18.5199L9.18345 18.5525C9.34401 18.6328 9.40739 18.8291 9.3241 18.9881C9.23856 19.1515 9.03318 19.2092 8.87503 19.1143Z" fill="#9747FF"/>
        <path d="M17.3615 13.6352L17.3027 13.6088C17.1022 13.5189 16.868 13.6218 16.7985 13.8302C16.7314 14.0316 16.8463 14.2481 17.0506 14.3053L17.1127 14.3226C17.2699 14.3667 17.4373 14.3014 17.5232 14.1626C17.64 13.9741 17.5639 13.7259 17.3615 13.6352Z" fill="#9747FF"/>
        <path d="M17.8381 24.1719L17.7458 23.9616C17.6404 23.7217 17.7703 23.4439 18.0219 23.3708C18.244 23.3063 18.4777 23.4276 18.5529 23.6463L18.6276 23.8635C18.6874 24.0375 18.6282 24.2303 18.481 24.3407C18.2623 24.5047 17.9479 24.4221 17.8381 24.1719Z" fill="#9747FF"/>
        <path d="M4.3689 14.7814L4.27737 14.3054C4.27476 14.2918 4.27344 14.278 4.27344 14.2641C4.27344 14.0803 4.48634 13.9784 4.62948 14.0937L5.00692 14.3978C5.16529 14.5254 5.20145 14.7521 5.09062 14.9226C4.89614 15.2218 4.43629 15.1318 4.3689 14.7814Z" fill="#9747FF"/>
        <path d="M19.3619 5.53789L19.1382 4.78681C19.0816 4.59681 19.1887 4.39669 19.3781 4.33838C19.585 4.27472 19.8011 4.40607 19.8399 4.61905L19.9801 5.39011C20.0155 5.58546 19.8654 5.76529 19.6669 5.76529C19.5262 5.76529 19.4021 5.67284 19.3619 5.53789Z" fill="#9747FF"/>
        <path d="M16.4586 30.5078L16.833 30.374C16.8941 30.3522 16.9607 30.3519 17.022 30.373C17.2715 30.459 17.2806 30.8084 17.036 30.9073L16.6673 31.0563C16.5276 31.1128 16.3678 31.0543 16.2976 30.9209C16.2144 30.7629 16.2904 30.5678 16.4586 30.5078Z" fill="#9747FF"/>
        <path d="M18.6188 11.5357L18.4524 11.4263C18.2413 11.2876 18.2025 10.9938 18.3703 10.8051C18.5506 10.6022 18.8739 10.6247 19.0244 10.8504L19.135 11.0162C19.197 11.1093 19.2141 11.2252 19.1815 11.3322C19.1089 11.5709 18.8273 11.6727 18.6188 11.5357Z" fill="#9747FF"/>
        <path d="M30.6782 16.3099C30.6782 16.1869 30.5092 16.1531 30.4619 16.2666C30.431 16.3407 30.4855 16.4224 30.5658 16.4224C30.6279 16.4224 30.6782 16.372 30.6782 16.3099Z" fill="#9747FF"/>
        <path d="M16 32C24.8366 32 32 24.8366 32 16C32 7.16344 24.8366 0 16 0C7.16344 0 0 7.16344 0 16C0 24.8366 7.16344 32 16 32Z" fill="url(#paint0_linear_395_241)"/>
    </g>
    <defs>
        <linearGradient id="paint0_linear_395_241" x1="25.4763" y1="3.17751" x2="5.17399" y2="27.6977" gradientUnits="userSpaceOnUse">
            <stop stop-color="white" stop-opacity="0.8"/>
            <stop offset="1" stop-color="#37007F" stop-opacity="0.1"/>
        </linearGradient>
        <clipPath id="clip0_395_241">
            <rect width="32" height="32" fill="white"/>
        </clipPath>
    </defs>
</svg>
